Urbanist-ThinItalic.ufo
<glyph name="dollar" format="2">
  <advance width="1158"/>
  <unicode hex="0024"/>
  <outline>
    <contour>
      <point x="702" y="1358" type="curve"/>
      <point x="882" y="1358"/>
      <point x="1074" y="1278"/>
      <point x="1108" y="1120" type="curve"/>
      <point x="1167" y="1136" type="line"/>
      <point x="1125" y="1308"/>
      <point x="934" y="1408"/>
      <point x="737" y="1416" type="curve"/>
      <point x="768" y="1624" type="line"/>
      <point x="708" y="1624" type="line"/>
      <point x="677" y="1416" type="line"/>
      <point x="430" y="1406"/>
      <point x="197" y="1264"/>
      <point x="167" y="1045" type="curve"/>
      <point x="131" y="792"/>
      <point x="332" y="718"/>
      <point x="605" y="667" type="curve"/>
      <point x="813" y="626"/>
      <point x="1015" y="548"/>
      <point x="987" y="353" type="curve"/>
      <point x="960" y="160"/>
      <point x="737" y="34"/>
      <point x="509" y="34" type="curve"/>
      <point x="329" y="34"/>
      <point x="137" y="114"/>
      <point x="103" y="272" type="curve"/>
      <point x="46" y="254" type="line"/>
      <point x="81" y="88"/>
      <point x="269" y="-18"/>
      <point x="478" y="-26" type="curve"/>
      <point x="448" y="-224" type="line"/>
      <point x="508" y="-224" type="line"/>
      <point x="538" y="-26" type="line"/>
      <point x="785" y="-14"/>
      <point x="1015" y="126"/>
      <point x="1046" y="347" type="curve"/>
      <point x="1078" y="574"/>
      <point x="860" y="682"/>
      <point x="607" y="729" type="curve"/>
      <point x="369" y="776"/>
      <point x="196" y="824"/>
      <point x="226" y="1039" type="curve"/>
      <point x="253" y="1230"/>
      <point x="472" y="1358"/>
    </contour>
  </outline>
</glyph>
<glyph name="percent" format="2">
  <advance width="1108"/>
  <unicode hex="0025"/>
  <outline>
    <contour>
      <point x="43" y="0" type="line"/>
      <point x="114" y="0" type="line"/>
      <point x="1119" y="1400" type="line"/>
      <point x="1048" y="1400" type="line"/>
    </contour>
    <contour>
      <point x="332" y="900" type="curve"/>
      <point x="436" y="900"/>
      <point x="532" y="984"/>
      <point x="547" y="1089" type="curve"/>
      <point x="562" y="1196"/>
      <point x="487" y="1286"/>
      <point x="379" y="1286" type="curve"/>
      <point x="275" y="1286"/>
      <point x="178" y="1200"/>
      <point x="164" y="1095" type="curve"/>
      <point x="149" y="988"/>
      <point x="224" y="900"/>
    </contour>
    <contour>
      <point x="333" y="960" type="curve"/>
      <point x="261" y="960"/>
      <point x="213" y="1018"/>
      <point x="223" y="1089" type="curve"/>
      <point x="233" y="1164"/>
      <point x="302" y="1226"/>
      <point x="377" y="1226" type="curve"/>
      <point x="450" y="1226"/>
      <point x="498" y="1168"/>
      <point x="488" y="1095" type="curve"/>
      <point x="477" y="1022"/>
      <point x="409" y="960"/>
    </contour>
    <contour>
      <point x="785" y="114" type="curve"/>
      <point x="889" y="114"/>
      <point x="986" y="200"/>
      <point x="1001" y="305" type="curve"/>
      <point x="1016" y="412"/>
      <point x="940" y="500"/>
      <point x="833" y="500" type="curve"/>
      <point x="728" y="500"/>
      <point x="630" y="416"/>
      <point x="615" y="311" type="curve"/>
      <point x="600" y="204"/>
      <point x="677" y="114"/>
    </contour>
    <contour>
      <point x="787" y="174" type="curve"/>
      <point x="715" y="174"/>
      <point x="664" y="232"/>
      <point x="675" y="305" type="curve"/>
      <point x="685" y="378"/>
      <point x="755" y="440"/>
      <point x="831" y="440" type="curve"/>
      <point x="901" y="440"/>
      <point x="951" y="382"/>
      <point x="941" y="311" type="curve"/>
      <point x="931" y="236"/>
      <point x="861" y="174"/>
    </contour>
  </outline>
</glyph>
<glyph name="ampersand" format="2">
  <advance width="1406"/>
  <unicode hex="0026"/>
  <outline>
    <contour>
      <point x="395" y="-26" type="curve" smooth="yes"/>
      <point x="574" y="-26"/>
      <point x="617" y="27"/>
      <point x="943" y="313" type="curve"/>
      <point x="1215" y="0" type="line"/>
      <point x="1262" y="42" type="line"/>
      <point x="988" y="358" type="line"/>
      <point x="1167" y="514" type="line"/>
      <point x="1177" y="598" type="line"/>
      <point x="953" y="404" type="line"/>
      <point x="561" y="861" type="line"/>
      <point x="754" y="1029"/>
      <point x="796" y="1056"/>
      <point x="812" y="1171" type="curve" smooth="yes"/>
      <point x="832" y="1312"/>
      <point x="732" y="1426"/>
      <point x="593" y="1426" type="curve" smooth="yes"/>
      <point x="458" y="1426"/>
      <point x="330" y="1314"/>
      <point x="311" y="1177" type="curve" smooth="yes"/>
      <point x="295" y="1064"/>
      <point x="327" y="1039"/>
      <point x="475" y="864" type="curve"/>
      <point x="152" y="581"/>
      <point x="86" y="540"/>
      <point x="61" y="365" type="curve" smooth="yes"/>
      <point x="33" y="166"/>
      <point x="162" y="-26"/>
    </contour>
    <contour>
      <point x="397" y="34" type="curve" smooth="yes"/>
      <point x="217" y="34"/>
      <point x="97" y="176"/>
      <point x="122" y="355" type="curve" smooth="yes"/>
      <point x="144" y="514"/>
      <point x="195" y="539"/>
      <point x="512" y="819" type="curve"/>
      <point x="906" y="361" type="line"/>
      <point x="597" y="87"/>
      <point x="561" y="34"/>
    </contour>
    <contour>
      <point x="520" y="904" type="curve"/>
      <point x="389" y="1059"/>
      <point x="357" y="1078"/>
      <point x="370" y="1171" type="curve" smooth="yes"/>
      <point x="385" y="1272"/>
      <point x="479" y="1366"/>
      <point x="591" y="1366" type="curve" smooth="yes"/>
      <point x="695" y="1366"/>
      <point x="768" y="1282"/>
      <point x="753" y="1177" type="curve" smooth="yes"/>
      <point x="740" y="1084"/>
      <point x="704" y="1063"/>
    </contour>
  </outline>
</glyph>
<glyph name="asterisk" format="2">
  <advance width="690"/>
  <unicode hex="002A"/>
  <outline>
    <contour>
      <point x="239" y="866" type="line"/>
      <point x="411" y="1064" type="line"/>
      <point x="525" y="866" type="line"/>
      <point x="578" y="902" type="line"/>
      <point x="462" y="1098" type="line"/>
      <point x="704" y="1174" type="line"/>
      <point x="694" y="1230" type="line"/>
      <point x="452" y="1156" type="line"/>
      <point x="486" y="1400" type="line"/>
      <point x="426" y="1400" type="line"/>
      <point x="392" y="1156" type="line"/>
      <point x="170" y="1230" type="line"/>
      <point x="144" y="1174" type="line"/>
      <point x="364" y="1098" type="line"/>
      <point x="194" y="902" type="line"/>
    </contour>
  </outline>
</glyph>
<glyph name="plus" format="2">
  <advance width="1160"/>
  <unicode hex="002B"/>
  <outline>
    <contour>
      <point x="494" y="100" type="line"/>
      <point x="554" y="100" type="line"/>
      <point x="620" y="570" type="line"/>
      <point x="1090" y="570" type="line"/>
      <point x="1098" y="630" type="line"/>
      <point x="628" y="630" type="line"/>
      <point x="694" y="1100" type="line"/>
      <point x="634" y="1100" type="line"/>
      <point x="568" y="630" type="line"/>
      <point x="98" y="630" type="line"/>
      <point x="90" y="570" type="line"/>
      <point x="560" y="570" type="line"/>
    </contour>
  </outline>
</glyph>
<glyph name="comma" format="2">
  <advance width="322"/>
  <unicode hex="002C"/>
  <outline>
    <contour>
      <point x="-6" y="-112" type="line"/>
      <point x="34" y="-112" type="line"/>
      <point x="164" y="226" type="line"/>
      <point x="103" y="226" type="line"/>
    </contour>
  </outline>
</glyph>
<glyph name="period" format="2">
  <advance width="290"/>
  <unicode hex="002E"/>
  <outline>
    <contour>
      <point x="53" y="-26" type="curve" smooth="yes"/>
      <point x="78" y="-26"/>
      <point x="99" y="-8"/>
      <point x="102" y="17" type="curve" smooth="yes"/>
      <point x="106" y="42"/>
      <point x="87" y="64"/>
      <point x="59" y="64" type="curve" smooth="yes"/>
      <point x="37" y="64"/>
      <point x="16" y="46"/>
      <point x="13" y="23" type="curve" smooth="yes"/>
      <point x="9" y="-4"/>
      <point x="28" y="-26"/>
    </contour>
  </outline>
</glyph>
<glyph name="seven" format="2">
  <advance width="1046"/>
  <unicode hex="0037"/>
  <outline>
    <contour>
      <point x="93" y="0" type="line"/>
      <point x="162" y="0" type="line"/>
      <point x="1125" y="1340" type="line"/>
      <point x="1132" y="1400" type="line"/>
      <point x="166" y="1400" type="line"/>
      <point x="158" y="1340" type="line"/>
      <point x="1053" y="1340" type="line"/>
    </contour>
  </outline>
</glyph>
<glyph name="semicolon" format="2">
  <advance width="334"/>
  <unicode hex="003B"/>
  <outline>
    <contour>
      <point x="-6" y="-112" type="line"/>
      <point x="34" y="-112" type="line"/>
      <point x="164" y="226" type="line"/>
      <point x="103" y="226" type="line"/>
    </contour>
    <contour>
      <point x="231" y="910" type="curve" smooth="yes"/>
      <point x="253" y="910"/>
      <point x="274" y="928"/>
      <point x="277" y="951" type="curve" smooth="yes"/>
      <point x="281" y="978"/>
      <point x="263" y="1000"/>
      <point x="237" y="1000" type="curve" smooth="yes"/>
      <point x="213" y="1000"/>
      <point x="192" y="982"/>
      <point x="188" y="957" type="curve" smooth="yes"/>
      <point x="185" y="932"/>
      <point x="203" y="910"/>
    </contour>
  </outline>
</glyph>
<glyph name="equal" format="2">
  <advance width="1160"/>
  <unicode hex="003D"/>
  <outline>
    <contour>
      <point x="63" y="378" type="line"/>
      <point x="1063" y="378" type="line"/>
      <point x="1071" y="438" type="line"/>
      <point x="71" y="438" type="line"/>
    </contour>
    <contour>
      <point x="117" y="762" type="line"/>
      <point x="1117" y="762" type="line"/>
      <point x="1125" y="822" type="line"/>
      <point x="125" y="822" type="line"/>
    </contour>
  </outline>
</glyph>
<glyph name="B" format="2">
  <advance width="1070"/>
  <unicode hex="0042"/>
  <outline>
    <contour>
      <point x="50" y="0" type="line"/>
      <point x="561" y="0" type="line" smooth="yes"/>
      <point x="759" y="0"/>
      <point x="941" y="150"/>
      <point x="976" y="399" type="curve" smooth="yes"/>
      <point x="999" y="564"/>
      <point x="923" y="731"/>
      <point x="771" y="775" type="curve"/>
      <point x="850" y="788"/>
      <point x="970" y="910"/>
      <point x="990" y="1057" type="curve" smooth="yes"/>
      <point x="1022" y="1280"/>
      <point x="881" y="1398"/>
      <point x="689" y="1398" type="curve" smooth="yes"/>
      <point x="246" y="1398" type="line"/>
    </contour>
    <contour>
      <point x="118" y="60" type="line"/>
      <point x="214" y="740" type="line"/>
      <point x="665" y="740" type="line" smooth="yes"/>
      <point x="831" y="740"/>
      <point x="941" y="580"/>
      <point x="917" y="405" type="curve" smooth="yes"/>
      <point x="889" y="208"/>
      <point x="732" y="60"/>
      <point x="566" y="60" type="curve" smooth="yes"/>
    </contour>
    <contour>
      <point x="222" y="800" type="line"/>
      <point x="298" y="1338" type="line"/>
      <point x="683" y="1338" type="line" smooth="yes"/>
      <point x="841" y="1338"/>
      <point x="958" y="1252"/>
      <point x="931" y="1063" type="curve" smooth="yes"/>
      <point x="907" y="892"/>
      <point x="762" y="800"/>
      <point x="604" y="800" type="curve" smooth="yes"/>
    </contour>
  </outline>
</glyph>
<glyph name="E" format="2">
  <advance width="1052"/>
  <unicode hex="0045"/>
  <outline>
    <contour>
      <point x="50" y="0" type="line"/>
      <point x="882" y="0" type="line"/>
      <point x="890" y="60" type="line"/>
      <point x="118" y="60" type="line"/>
      <point x="211" y="720" type="line"/>
      <point x="867" y="720" type="line"/>
      <point x="875" y="780" type="line"/>
      <point x="219" y="780" type="line"/>
      <point x="298" y="1340" type="line"/>
      <point x="1070" y="1340" type="line"/>
      <point x="1078" y="1400" type="line"/>
      <point x="246" y="1400" type="line"/>
    </contour>
  </outline>
</glyph>
<glyph name="K" format="2">
  <advance width="984"/>
  <unicode hex="004B"/>
  <outline>
    <contour>
      <point x="853" y="0" type="line"/>
      <point x="411" y="738" type="line"/>
      <point x="1061" y="1400" type="line"/>
      <point x="982" y="1400" type="line"/>
      <point x="193" y="594" type="line"/>
      <point x="306" y="1400" type="line"/>
      <point x="246" y="1400" type="line"/>
      <point x="50" y="0" type="line"/>
      <point x="110" y="0" type="line"/>
      <point x="181" y="500" type="line"/>
      <point x="366" y="690" type="line"/>
      <point x="778" y="0" type="line"/>
    </contour>
  </outline>
</glyph>
<glyph name="N" format="2">
  <advance width="1278"/>
  <unicode hex="004E"/>
  <outline>
    <contour>
      <point x="80" y="0" type="line"/>
      <point x="140" y="0" type="line"/>
      <point x="322" y="1292" type="line"/>
      <point x="994" y="0" type="line"/>
      <point x="1058" y="0" type="line"/>
      <point x="1254" y="1400" type="line"/>
      <point x="1194" y="1400" type="line"/>
      <point x="1012" y="108" type="line"/>
      <point x="342" y="1400" type="line"/>
      <point x="276" y="1400" type="line"/>
    </contour>
  </outline>
</glyph>
<glyph name="S" format="2">
  <advance width="1198"/>
  <unicode hex="0053"/>
  <outline>
    <contour>
      <point x="527" y="-26" type="curve" smooth="yes"/>
      <point x="786" y="-26"/>
      <point x="1034" y="118"/>
      <point x="1066" y="347" type="curve" smooth="yes"/>
      <point x="1098" y="574"/>
      <point x="880" y="682"/>
      <point x="627" y="729" type="curve" smooth="yes"/>
      <point x="389" y="776"/>
      <point x="216" y="824"/>
      <point x="246" y="1039" type="curve" smooth="yes"/>
      <point x="273" y="1230"/>
      <point x="492" y="1358"/>
      <point x="722" y="1358" type="curve" smooth="yes"/>
      <point x="902" y="1358"/>
      <point x="1094" y="1278"/>
      <point x="1128" y="1120" type="curve"/>
      <point x="1187" y="1136" type="line"/>
      <point x="1142" y="1318"/>
      <point x="933" y="1418"/>
      <point x="724" y="1418" type="curve" smooth="yes"/>
      <point x="467" y="1418"/>
      <point x="219" y="1274"/>
      <point x="187" y="1045" type="curve" smooth="yes"/>
      <point x="151" y="792"/>
      <point x="352" y="718"/>
      <point x="625" y="667" type="curve" smooth="yes"/>
      <point x="833" y="626"/>
      <point x="1035" y="548"/>
      <point x="1007" y="353" type="curve" smooth="yes"/>
      <point x="980" y="160"/>
      <point x="757" y="34"/>
      <point x="529" y="34" type="curve" smooth="yes"/>
      <point x="349" y="34"/>
      <point x="157" y="114"/>
      <point x="123" y="272" type="curve"/>
      <point x="66" y="254" type="line"/>
      <point x="101" y="80"/>
      <point x="308" y="-26"/>
    </contour>
  </outline>
</glyph>
<glyph name="U" format="2">
  <advance width="1300"/>
  <unicode hex="0055"/>
  <outline>
    <contour>
      <point x="579" y="-26" type="curve" smooth="yes"/>
      <point x="914" y="-26"/>
      <point x="1144" y="244"/>
      <point x="1192" y="582" type="curve" smooth="yes"/>
      <point x="1306" y="1400" type="line"/>
      <point x="1246" y="1400" type="line"/>
      <point x="1132" y="586" type="line" smooth="yes"/>
      <point x="1090" y="290"/>
      <point x="891" y="34"/>
      <point x="581" y="34" type="curve" smooth="yes"/>
      <point x="279" y="34"/>
      <point x="149" y="282"/>
      <point x="192" y="582" type="curve" smooth="yes"/>
      <point x="306" y="1400" type="line"/>
      <point x="246" y="1400" type="line"/>
      <point x="132" y="586" type="line" smooth="yes"/>
      <point x="85" y="248"/>
      <point x="242" y="-26"/>
    </contour>
  </outline>
</glyph>
<glyph name="V" format="2">
  <advance width="1118"/>
  <unicode hex="0056"/>
  <outline>
    <contour>
      <point x="458" y="0" type="line"/>
      <point x="518" y="0" type="line"/>
      <point x="1225" y="1400" type="line"/>
      <point x="1160" y="1400" type="line"/>
      <point x="500" y="92" type="line"/>
      <point x="210" y="1400" type="line"/>
      <point x="147" y="1400" type="line"/>
    </contour>
  </outline>
</glyph>
<glyph name="Y" format="2">
  <advance width="1108"/>
  <unicode hex="0059"/>
  <outline>
    <contour>
      <point x="1104" y="1400" type="line"/>
      <point x="581" y="702" type="line"/>
      <point x="256" y="1400" type="line"/>
      <point x="187" y="1400" type="line"/>
      <point x="544" y="636" type="line"/>
      <point x="454" y="0" type="line"/>
      <point x="514" y="0" type="line"/>
      <point x="604" y="636" type="line"/>
      <point x="1175" y="1400" type="line"/>
    </contour>
  </outline>
</glyph>
<glyph name="bracketleft" format="2">
  <advance width="460"/>
  <unicode hex="005B"/>
  <outline>
    <contour>
      <point x="282" y="-52" type="line"/>
      <point x="102" y="-52" type="line"/>
      <point x="298" y="1340" type="line"/>
      <point x="478" y="1340" type="line"/>
      <point x="486" y="1400" type="line"/>
      <point x="246" y="1400" type="line"/>
      <point x="34" y="-112" type="line"/>
      <point x="274" y="-112" type="line"/>
    </contour>
  </outline>
</glyph>
<glyph name="d" format="2">
  <advance width="1204"/>
  <unicode hex="0064"/>
  <outline>
    <contour>
      <point x="1135" y="1500" type="line"/>
      <point x="1031" y="766" type="line"/>
      <point x="981" y="922"/>
      <point x="853" y="1028"/>
      <point x="657" y="1028" type="curve"/>
      <point x="369" y="1028"/>
      <point x="101" y="794"/>
      <point x="60" y="503" type="curve"/>
      <point x="19" y="212"/>
      <point x="224" y="-26"/>
      <point x="515" y="-26" type="curve"/>
      <point x="708" y="-26"/>
      <point x="863" y="76"/>
      <point x="957" y="232" type="curve"/>
      <point x="924" y="0" type="line"/>
      <point x="984" y="0" type="line"/>
      <point x="1195" y="1500" type="line"/>
    </contour>
    <contour>
      <point x="517" y="34" type="curve"/>
      <point x="269" y="34"/>
      <point x="83" y="236"/>
      <point x="120" y="497" type="curve"/>
      <point x="156" y="756"/>
      <point x="397" y="968"/>
      <point x="655" y="968" type="curve"/>
      <point x="907" y="968"/>
      <point x="1027" y="764"/>
      <point x="990" y="503" type="curve"/>
      <point x="954" y="246"/>
      <point x="777" y="34"/>
    </contour>
  </outline>
</glyph>
<glyph name="f" format="2">
  <advance width="620"/>
  <unicode hex="0066"/>
  <outline>
    <contour>
      <point x="381" y="1300" type="line"/>
      <point x="394" y="1390"/>
      <point x="478" y="1464"/>
      <point x="568" y="1464" type="curve"/>
      <point x="612" y="1464"/>
      <point x="651" y="1446"/>
      <point x="677" y="1416" type="curve"/>
      <point x="725" y="1458" type="line"/>
      <point x="689" y="1500"/>
      <point x="636" y="1524"/>
      <point x="576" y="1524" type="curve"/>
      <point x="452" y="1524"/>
      <point x="338" y="1424"/>
      <point x="321" y="1300" type="curve"/>
      <point x="279" y="1000" type="line"/>
      <point x="121" y="1000" type="line"/>
      <point x="112" y="940" type="line"/>
      <point x="270" y="940" type="line"/>
      <point x="138" y="0" type="line"/>
      <point x="198" y="0" type="line"/>
      <point x="330" y="940" type="line"/>
      <point x="652" y="940" type="line"/>
      <point x="661" y="1000" type="line"/>
      <point x="339" y="1000" type="line"/>
    </contour>
  </outline>
</glyph>
<glyph name="h" format="2">
  <advance width="1038"/>
  <unicode hex="0068"/>
  <outline>
    <contour>
      <point x="965" y="552" type="line"/>
      <point x="997" y="804"/>
      <point x="851" y="1028"/>
      <point x="609" y="1028" type="curve"/>
      <point x="463" y="1028"/>
      <point x="324" y="943"/>
      <point x="221" y="797" type="curve"/>
      <point x="321" y="1500" type="line"/>
      <point x="261" y="1500" type="line"/>
      <point x="50" y="0" type="line"/>
      <point x="110" y="0" type="line"/>
      <point x="187" y="548" type="line"/>
      <point x="219" y="778"/>
      <point x="409" y="968"/>
      <point x="607" y="968" type="curve"/>
      <point x="803" y="968"/>
      <point x="938" y="782"/>
      <point x="905" y="552" type="curve"/>
      <point x="828" y="0" type="line"/>
      <point x="888" y="0" type="line"/>
    </contour>
  </outline>
</glyph>
<glyph name="x" format="2">
  <advance width="966"/>
  <unicode hex="0078"/>
  <outline>
    <contour>
      <point x="9" y="0" type="line"/>
      <point x="84" y="0" type="line"/>
      <point x="479" y="452" type="line"/>
      <point x="742" y="0" type="line"/>
      <point x="815" y="0" type="line"/>
      <point x="520" y="502" type="line"/>
      <point x="957" y="1004" type="line"/>
      <point x="882" y="1004" type="line"/>
      <point x="490" y="554" type="line"/>
      <point x="224" y="1004" type="line"/>
      <point x="151" y="1004" type="line"/>
      <point x="446" y="502" type="line"/>
    </contour>
  </outline>
</glyph>
<glyph name="braceright" format="2">
  <advance width="790"/>
  <unicode hex="007D"/>
  <outline>
    <contour>
      <point x="14" y="-114" type="line"/>
      <point x="63" y="-114" type="line" smooth="yes"/>
      <point x="257" y="-114"/>
      <point x="434" y="42"/>
      <point x="461" y="234" type="curve" smooth="yes"/>
      <point x="495" y="480" type="line"/>
      <point x="515" y="580"/>
      <point x="678" y="556"/>
      <point x="689" y="639" type="curve" smooth="yes"/>
      <point x="703" y="732"/>
      <point x="532" y="702"/>
      <point x="540" y="802" type="curve"/>
      <point x="575" y="1048" type="line" smooth="yes"/>
      <point x="602" y="1240"/>
      <point x="467" y="1400"/>
      <point x="273" y="1400" type="curve" smooth="yes"/>
      <point x="226" y="1400" type="line"/>
      <point x="218" y="1340" type="line"/>
      <point x="268" y="1340" type="line" smooth="yes"/>
      <point x="426" y="1340"/>
      <point x="538" y="1212"/>
      <point x="516" y="1052" type="curve" smooth="yes"/>
      <point x="481" y="804" type="line" smooth="yes"/>
      <point x="473" y="718"/>
      <point x="497" y="709"/>
      <point x="598" y="644" type="curve"/>
      <point x="471" y="575"/>
      <point x="452" y="572"/>
      <point x="436" y="486" type="curve" smooth="yes"/>
      <point x="401" y="238" type="line" smooth="yes"/>
      <point x="379" y="78"/>
      <point x="228" y="-54"/>
      <point x="68" y="-54" type="curve" smooth="yes"/>
      <point x="22" y="-54" type="line"/>
    </contour>
  </outline>
</glyph>
<glyph name="asciitilde" format="2">
  <advance width="1161"/>
  <unicode hex="007E"/>
  <outline>
    <contour>
      <point x="842" y="443" type="curve" smooth="yes"/>
      <point x="987" y="443"/>
      <point x="1128" y="579"/>
      <point x="1103" y="729" type="curve"/>
      <point x="1044" y="715" type="line"/>
      <point x="1059" y="609"/>
      <point x="958" y="505"/>
      <point x="846" y="505" type="curve" smooth="yes"/>
      <point x="696" y="505"/>
      <point x="499" y="757"/>
      <point x="344" y="757" type="curve" smooth="yes"/>
      <point x="191" y="757"/>
      <point x="62" y="607"/>
      <point x="85" y="469" type="curve"/>
      <point x="144" y="479" type="line"/>
      <point x="131" y="591"/>
      <point x="230" y="697"/>
      <point x="340" y="695" type="curve" smooth="yes"/>
      <point x="470" y="697"/>
      <point x="677" y="443"/>
    </contour>
  </outline>
</glyph>
<glyph name="brokenbar" format="2">
  <advance width="300"/>
  <unicode hex="00A6"/>
  <outline>
    <contour>
      <point x="113" y="448" type="line"/>
      <point x="7" y="-302" type="line"/>
      <point x="67" y="-302" type="line"/>
      <point x="173" y="448" type="line"/>
    </contour>
    <contour>
      <point x="246" y="1400" type="line"/>
      <point x="141" y="650" type="line"/>
      <point x="201" y="650" type="line"/>
      <point x="306" y="1400" type="line"/>
    </contour>
  </outline>
</glyph>
<glyph name="section" format="2">
  <advance width="1056"/>
  <unicode hex="00A7"/>
  <outline>
    <contour>
      <point x="419" y="-424" type="curve" smooth="yes"/>
      <point x="606" y="-424"/>
      <point x="791" y="-318"/>
      <point x="815" y="-149" type="curve" smooth="yes"/>
      <point x="836" y="0"/>
      <point x="752" y="84"/>
      <point x="557" y="109" type="curve"/>
      <point x="750" y="148"/>
      <point x="910" y="312"/>
      <point x="935" y="495" type="curve" smooth="yes"/>
      <point x="971" y="750"/>
      <point x="822" y="868"/>
      <point x="567" y="927" type="curve" smooth="yes"/>
      <point x="381" y="972"/>
      <point x="281" y="1006"/>
      <point x="300" y="1143" type="curve" smooth="yes"/>
      <point x="319" y="1278"/>
      <point x="475" y="1364"/>
      <point x="635" y="1364" type="curve" smooth="yes"/>
      <point x="759" y="1364"/>
      <point x="892" y="1304"/>
      <point x="919" y="1198" type="curve"/>
      <point x="974" y="1224" type="line"/>
      <point x="941" y="1340"/>
      <point x="804" y="1424"/>
      <point x="637" y="1424" type="curve" smooth="yes"/>
      <point x="450" y="1424"/>
      <point x="265" y="1318"/>
      <point x="241" y="1149" type="curve" smooth="yes"/>
      <point x="220" y="998"/>
      <point x="302" y="914"/>
      <point x="499" y="889" type="curve"/>
      <point x="301" y="848"/>
      <point x="146" y="684"/>
      <point x="120" y="501" type="curve" smooth="yes"/>
      <point x="85" y="254"/>
      <point x="238" y="130"/>
      <point x="489" y="73" type="curve" smooth="yes"/>
      <point x="674" y="30"/>
      <point x="775" y="-6"/>
      <point x="756" y="-143" type="curve" smooth="yes"/>
      <point x="737" y="-278"/>
      <point x="581" y="-364"/>
      <point x="421" y="-364" type="curve" smooth="yes"/>
      <point x="297" y="-364"/>
      <point x="164" y="-304"/>
      <point x="137" y="-198" type="curve"/>
      <point x="82" y="-224" type="line"/>
      <point x="115" y="-340"/>
      <point x="252" y="-424"/>
    </contour>
    <contour>
      <point x="476" y="156" type="curve" smooth="yes"/>
      <point x="304" y="156"/>
      <point x="152" y="302"/>
      <point x="179" y="495" type="curve" smooth="yes"/>
      <point x="207" y="694"/>
      <point x="386" y="844"/>
      <point x="580" y="844" type="curve" smooth="yes"/>
      <point x="748" y="844"/>
      <point x="906" y="716"/>
      <point x="875" y="495" type="curve" smooth="yes"/>
      <point x="849" y="310"/>
      <point x="670" y="156"/>
    </contour>
  </outline>
</glyph>
<glyph name="copyright" format="2">
  <advance width="1724"/>
  <unicode hex="00A9"/>
  <outline>
    <contour>
      <point x="776" y="-138" type="curve" smooth="yes"/>
      <point x="1206" y="-138"/>
      <point x="1603" y="210"/>
      <point x="1664" y="641" type="curve" smooth="yes"/>
      <point x="1725" y="1074"/>
      <point x="1422" y="1426"/>
      <point x="989" y="1426" type="curve" smooth="yes"/>
      <point x="558" y="1426"/>
      <point x="161" y="1078"/>
      <point x="101" y="647" type="curve" smooth="yes"/>
      <point x="40" y="214"/>
      <point x="342" y="-138"/>
    </contour>
    <contour>
      <point x="777" y="-78" type="curve" smooth="yes"/>
      <point x="387" y="-78"/>
      <point x="103" y="236"/>
      <point x="160" y="641" type="curve" smooth="yes"/>
      <point x="216" y="1038"/>
      <point x="587" y="1362"/>
      <point x="987" y="1366" type="curve" smooth="yes"/>
      <point x="1378" y="1370"/>
      <point x="1661" y="1048"/>
      <point x="1605" y="647" type="curve" smooth="yes"/>
      <point x="1549" y="254"/>
      <point x="1183" y="-78"/>
    </contour>
    <component base="c" xOffset="334" yOffset="144"/>
  </outline>
</glyph>
<glyph name="plusminus" format="2">
  <advance width="1160"/>
  <unicode hex="00B1"/>
  <outline>
    <contour>
      <point x="522" y="300" type="line"/>
      <point x="582" y="300" type="line"/>
      <point x="648" y="770" type="line"/>
      <point x="1118" y="770" type="line"/>
      <point x="1126" y="830" type="line"/>
      <point x="656" y="830" type="line"/>
      <point x="722" y="1300" type="line"/>
      <point x="662" y="1300" type="line"/>
      <point x="596" y="830" type="line"/>
      <point x="126" y="830" type="line"/>
      <point x="118" y="770" type="line"/>
      <point x="588" y="770" type="line"/>
    </contour>
    <contour>
      <point x="10" y="2" type="line"/>
      <point x="1010" y="2" type="line"/>
      <point x="1018" y="62" type="line"/>
      <point x="18" y="62" type="line"/>
    </contour>
  </outline>
</glyph>
<glyph name="paragraph" format="2">
  <advance width="702"/>
  <unicode hex="00B6"/>
  <outline>
    <contour>
      <point x="307" y="-302" type="line"/>
      <point x="367" y="-302" type="line"/>
      <point x="606" y="1400" type="line"/>
      <point x="545" y="1400" type="line" smooth="yes"/>
      <point x="357" y="1400"/>
      <point x="185" y="1248"/>
      <point x="159" y="1061" type="curve" smooth="yes"/>
      <point x="132" y="872"/>
      <point x="264" y="718"/>
      <point x="452" y="718" type="curve"/>
    </contour>
    <contour>
      <point x="449" y="-302" type="line"/>
      <point x="509" y="-302" type="line"/>
      <point x="748" y="1400" type="line"/>
      <point x="688" y="1400" type="line"/>
    </contour>
  </outline>
</glyph>
<glyph name="periodcentered" format="2">
  <advance width="250"/>
  <unicode hex="00B7"/>
  <outline>
    <contour>
      <point x="135" y="555" type="curve" smooth="yes"/>
      <point x="159" y="555"/>
      <point x="180" y="573"/>
      <point x="184" y="598" type="curve" smooth="yes"/>
      <point x="187" y="623"/>
      <point x="169" y="645"/>
      <point x="141" y="645" type="curve" smooth="yes"/>
      <point x="119" y="645"/>
      <point x="98" y="627"/>
      <point x="95" y="604" type="curve" smooth="yes"/>
      <point x="91" y="577"/>
      <point x="109" y="555"/>
    </contour>
  </outline>
</glyph>
<glyph name="onesuperior" format="2">
  <advance width="401"/>
  <unicode hex="00B9"/>
  <outline>
    <contour>
      <point x="230" y="818" type="line"/>
      <point x="302" y="818" type="line"/>
      <point x="390" y="1449" type="line"/>
      <point x="239" y="1449" type="line"/>
      <point x="219" y="1377" type="line"/>
      <point x="308" y="1377" type="line"/>
    </contour>
  </outline>
</glyph>
<glyph name="Eth" format="2">
  <advance width="1452"/>
  <unicode hex="00D0"/>
  <outline>
    <contour>
      <point x="158" y="0" type="line"/>
      <point x="623" y="0" type="line" smooth="yes"/>
      <point x="1009" y="0"/>
      <point x="1366" y="312"/>
      <point x="1420" y="697" type="curve" smooth="yes"/>
      <point x="1474" y="1084"/>
      <point x="1203" y="1400"/>
      <point x="817" y="1400" type="curve" smooth="yes"/>
      <point x="354" y="1400" type="line"/>
      <point x="267" y="780" type="line"/>
      <point x="139" y="780" type="line"/>
      <point x="131" y="720" type="line"/>
      <point x="259" y="720" type="line"/>
    </contour>
    <contour>
      <point x="226" y="60" type="line"/>
      <point x="319" y="720" type="line"/>
      <point x="717" y="720" type="line"/>
      <point x="725" y="780" type="line"/>
      <point x="327" y="780" type="line"/>
      <point x="406" y="1340" type="line"/>
      <point x="812" y="1340" type="line" smooth="yes"/>
      <point x="1156" y="1340"/>
      <point x="1411" y="1062"/>
      <point x="1361" y="703" type="curve" smooth="yes"/>
      <point x="1312" y="356"/>
      <point x="988" y="60"/>
      <point x="628" y="60" type="curve" smooth="yes"/>
    </contour>
  </outline>
</glyph>
<glyph name="Oslash" format="2">
  <advance width="1540"/>
  <unicode hex="00D8"/>
  <outline>
    <contour>
      <point x="288" y="-62" type="line"/>
      <point x="379" y="65" type="line"/>
      <point x="470" y="9"/>
      <point x="578" y="-26"/>
      <point x="699" y="-26" type="curve" smooth="yes"/>
      <point x="1078" y="-26"/>
      <point x="1432" y="298"/>
      <point x="1488" y="697" type="curve" smooth="yes"/>
      <point x="1523" y="950"/>
      <point x="1431" y="1173"/>
      <point x="1265" y="1303" type="curve"/>
      <point x="1359" y="1432" type="line"/>
      <point x="1310" y="1462" type="line"/>
      <point x="1219" y="1335" type="line"/>
      <point x="1128" y="1393"/>
      <point x="1020" y="1426"/>
      <point x="897" y="1426" type="curve" smooth="yes"/>
      <point x="518" y="1426"/>
      <point x="165" y="1102"/>
      <point x="109" y="703" type="curve" smooth="yes"/>
      <point x="73" y="452"/>
      <point x="167" y="229"/>
      <point x="333" y="97" type="curve"/>
      <point x="239" y="-32" type="line"/>
    </contour>
    <contour>
      <point x="367" y="149" type="line"/>
      <point x="216" y="269"/>
      <point x="136" y="470"/>
      <point x="168" y="697" type="curve" smooth="yes"/>
      <point x="218" y="1058"/>
      <point x="541" y="1366"/>
      <point x="895" y="1366" type="curve" smooth="yes"/>
      <point x="1003" y="1366"/>
      <point x="1103" y="1337"/>
      <point x="1186" y="1285" type="curve"/>
    </contour>
    <contour>
      <point x="701" y="34" type="curve" smooth="yes"/>
      <point x="595" y="34"/>
      <point x="495" y="63"/>
      <point x="412" y="115" type="curve"/>
      <point x="1232" y="1253" type="line"/>
      <point x="1380" y="1131"/>
      <point x="1460" y="930"/>
      <point x="1429" y="703" type="curve" smooth="yes"/>
      <point x="1378" y="342"/>
      <point x="1055" y="34"/>
    </contour>
  </outline>
</glyph>
<glyph name="iacute" format="2">
  <advance width="301"/>
  <unicode hex="00ED"/>
  <outline>
    <contour>
      <point x="190" y="1000" type="line"/>
      <point x="50" y="0" type="line"/>
      <point x="110" y="0" type="line"/>
      <point x="250" y="1000" type="line"/>
    </contour>
    <component base="acutecomb" xOffset="-340"/>
  </outline>
</glyph>
<glyph name="idieresis" format="2">
  <advance width="466"/>
  <unicode hex="00EF"/>
  <outline>
    <contour>
      <point x="272" y="1000" type="line"/>
      <point x="132" y="0" type="line"/>
      <point x="192" y="0" type="line"/>
      <point x="332" y="1000" type="line"/>
    </contour>
    <component base="dieresiscomb" xOffset="-340"/>
  </outline>
</glyph>
<glyph name="oslash" format="2">
  <advance width="1120"/>
  <unicode hex="00F8"/>
  <outline>
    <contour>
      <point x="207" y="-40" type="line"/>
      <point x="263" y="37" type="line"/>
      <point x="327" y="-1"/>
      <point x="404" y="-26"/>
      <point x="489" y="-26" type="curve" smooth="yes"/>
      <point x="764" y="-26"/>
      <point x="1019" y="208"/>
      <point x="1060" y="497" type="curve" smooth="yes"/>
      <point x="1085" y="680"/>
      <point x="1022" y="839"/>
      <point x="906" y="935" type="curve"/>
      <point x="965" y="1014" type="line"/>
      <point x="915" y="1044" type="line"/>
      <point x="858" y="967" type="line"/>
      <point x="796" y="1005"/>
      <point x="719" y="1028"/>
      <point x="631" y="1028" type="curve" smooth="yes"/>
      <point x="357" y="1028"/>
      <point x="101" y="794"/>
      <point x="60" y="503" type="curve" smooth="yes"/>
      <point x="35" y="324"/>
      <point x="100" y="165"/>
      <point x="217" y="69" type="curve"/>
      <point x="158" y="-10" type="line"/>
    </contour>
    <contour>
      <point x="251" y="121" type="line"/>
      <point x="151" y="205"/>
      <point x="98" y="342"/>
      <point x="120" y="497" type="curve" smooth="yes"/>
      <point x="168" y="844"/>
      <point x="555" y="1081"/>
      <point x="824" y="917" type="curve"/>
    </contour>
    <contour>
      <point x="297" y="87" type="curve"/>
      <point x="872" y="883" type="line"/>
      <point x="971" y="797"/>
      <point x="1022" y="658"/>
      <point x="1000" y="503" type="curve" smooth="yes"/>
      <point x="953" y="164"/>
      <point x="577" y="-81"/>
    </contour>
  </outline>
</glyph>
<glyph name="idotless" format="2">
  <advance width="300"/>
  <unicode hex="0131"/>
  <outline>
    <contour>
      <point x="190" y="1000" type="line"/>
      <point x="50" y="0" type="line"/>
      <point x="110" y="0" type="line"/>
      <point x="250" y="1000" type="line"/>
    </contour>
  </outline>
</glyph>
<glyph name="caron" format="2">
  <advance width="482"/>
  <unicode hex="02C7"/>
  <outline>
    <contour>
      <point x="316" y="1166" type="line"/>
      <point x="356" y="1166" type="line"/>
      <point x="489" y="1400" type="line"/>
      <point x="438" y="1400" type="line"/>
      <point x="344" y="1232" type="line"/>
      <point x="296" y="1400" type="line"/>
      <point x="247" y="1400" type="line"/>
    </contour>
  </outline>
</glyph>
<glyph name="gravecomb" format="2">
  <unicode hex="0300"/>
  <outline>
    <contour>
      <point x="451" y="1426" type="line"/>
      <point x="530" y="1138" type="line"/>
      <point x="549" y="1138" type="line"/>
      <point x="510" y="1426" type="line"/>
    </contour>
  </outline>
</glyph>
<glyph name="ringcomb" format="2">
  <unicode hex="030A"/>
  <outline>
    <contour>
      <point x="632" y="1142" type="curve"/>
      <point x="706" y="1142"/>
      <point x="775" y="1202"/>
      <point x="785" y="1279" type="curve"/>
      <point x="796" y="1354"/>
      <point x="742" y="1420"/>
      <point x="664" y="1420" type="curve"/>
      <point x="590" y="1420"/>
      <point x="521" y="1358"/>
      <point x="510" y="1285" type="curve"/>
      <point x="499" y="1208"/>
      <point x="554" y="1142"/>
    </contour>
    <contour>
      <point x="632" y="1190" type="curve"/>
      <point x="583" y="1190"/>
      <point x="550" y="1228"/>
      <point x="557" y="1279" type="curve"/>
      <point x="564" y="1328"/>
      <point x="612" y="1370"/>
      <point x="664" y="1370" type="curve"/>
      <point x="712" y="1370"/>
      <point x="745" y="1332"/>
      <point x="738" y="1285" type="curve"/>
      <point x="731" y="1232"/>
      <point x="683" y="1190"/>
    </contour>
  </outline>
</glyph>
<glyph name="cedillacomb" format="2">
  <unicode hex="0327"/>
  <outline>
    <contour>
      <point x="287" y="-306" type="line"/>
      <point x="318" y="-306" type="line" smooth="yes"/>
      <point x="508" y="-306"/>
      <point x="682" y="-154"/>
      <point x="709" y="36" type="curve" smooth="yes"/>
      <point x="713" y="68" type="line"/>
      <point x="653" y="68" type="line"/>
      <point x="649" y="40" type="line" smooth="yes"/>
      <point x="627" y="-116"/>
      <point x="479" y="-246"/>
      <point x="323" y="-246" type="curve" smooth="yes"/>
      <point x="295" y="-246" type="line"/>
    </contour>
  </outline>
</glyph>
<glyph name="Germandbls" format="2">
  <advance width="1070"/>
  <unicode hex="1E9E"/>
  <outline>
    <contour>
      <point x="50" y="0" type="line"/>
      <point x="110" y="0" type="line"/>
      <point x="249" y="992" type="line" smooth="yes"/>
      <point x="276" y="1182"/>
      <point x="451" y="1338"/>
      <point x="643" y="1338" type="curve" smooth="yes"/>
      <point x="791" y="1338"/>
      <point x="914" y="1284"/>
      <point x="898" y="1155" type="curve" smooth="yes"/>
      <point x="883" y="1034"/>
      <point x="546" y="756"/>
      <point x="546" y="696" type="curve" smooth="yes"/>
      <point x="545" y="662" type="line"/>
      <point x="612" y="662" type="line" smooth="yes"/>
      <point x="778" y="662"/>
      <point x="960" y="570"/>
      <point x="931" y="367" type="curve" smooth="yes"/>
      <point x="902" y="158"/>
      <point x="692" y="60"/>
      <point x="526" y="60" type="curve" smooth="yes"/>
      <point x="435" y="60" type="line"/>
      <point x="446" y="0" type="line"/>
      <point x="521" y="0" type="line" smooth="yes"/>
      <point x="719" y="0"/>
      <point x="957" y="120"/>
      <point x="990" y="359" type="curve" smooth="yes"/>
      <point x="1022" y="586"/>
      <point x="834" y="740"/>
      <point x="632" y="719" type="curve"/>
      <point x="870" y="991"/>
      <point x="956" y="1068"/>
      <point x="967" y="1149" type="curve" smooth="yes"/>
      <point x="991" y="1318"/>
      <point x="841" y="1398"/>
      <point x="649" y="1398" type="curve" smooth="yes"/>
      <point x="427" y="1398"/>
      <point x="221" y="1218"/>
      <point x="189" y="994" type="curve" smooth="yes"/>
    </contour>
  </outline>
</glyph>
<glyph name="bullet" format="2">
  <advance width="280"/>
  <unicode hex="2022"/>
  <outline>
    <contour>
      <point x="147" y="540" type="curve" smooth="yes"/>
      <point x="181" y="540"/>
      <point x="209" y="564"/>
      <point x="214" y="599" type="curve" smooth="yes"/>
      <point x="219" y="632"/>
      <point x="195" y="660"/>
      <point x="157" y="660" type="curve" smooth="yes"/>
      <point x="127" y="660"/>
      <point x="99" y="636"/>
      <point x="95" y="605" type="curve" smooth="yes"/>
      <point x="90" y="568"/>
      <point x="113" y="540"/>
    </contour>
  </outline>
</glyph>
<glyph name="fraction" format="2">
  <advance width="878"/>
  <unicode hex="2044"/>
  <unicode hex="2215"/>
  <outline>
    <contour>
      <point x="-71" y="0" type="line"/>
      <point x="0" y="0" type="line"/>
      <point x="1005" y="1400" type="line"/>
      <point x="934" y="1400" type="line"/>
    </contour>
  </outline>
</glyph>
<glyph name="fivesuperior" format="2">
  <advance width="670"/>
  <unicode hex="2075"/>
  <outline>
    <contour>
      <point x="350" y="798" type="curve" smooth="yes"/>
      <point x="471" y="798"/>
      <point x="580" y="883"/>
      <point x="597" y="1004" type="curve" smooth="yes"/>
      <point x="620" y="1167"/>
      <point x="491" y="1246"/>
      <point x="308" y="1218" type="curve"/>
      <point x="344" y="1377" type="line"/>
      <point x="627" y="1377" type="line"/>
      <point x="637" y="1449" type="line"/>
      <point x="289" y="1449" type="line"/>
      <point x="216" y="1119" type="line"/>
      <point x="301" y="1145"/>
      <point x="327" y="1154"/>
      <point x="400" y="1154" type="curve" smooth="yes"/>
      <point x="480" y="1154"/>
      <point x="537" y="1091"/>
      <point x="526" y="1010" type="curve" smooth="yes"/>
      <point x="514" y="928"/>
      <point x="436" y="870"/>
      <point x="354" y="870" type="curve" smooth="yes"/>
      <point x="273" y="870"/>
      <point x="216" y="924"/>
      <point x="227" y="1005" type="curve"/>
      <point x="155" y="1009" type="line"/>
      <point x="138" y="887"/>
      <point x="226" y="798"/>
    </contour>
  </outline>
</glyph>
<glyph name="sixinferior" format="2">
  <advance width="682"/>
  <unicode hex="2086"/>
  <outline>
    <contour>
      <point x="258" y="-31" type="curve"/>
      <point x="378" y="-31"/>
      <point x="499" y="51"/>
      <point x="518" y="187" type="curve"/>
      <point x="538" y="329"/>
      <point x="417" y="454"/>
      <point x="260" y="415" type="curve" smooth="yes"/>
      <point x="408" y="619" type="line"/>
      <point x="323" y="620" type="line" smooth="yes"/>
      <point x="109" y="327"/>
      <point x="64" y="271"/>
      <point x="53" y="193" type="curve"/>
      <point x="35" y="69"/>
      <point x="119" y="-31"/>
    </contour>
    <contour>
      <point x="261" y="41" type="curve"/>
      <point x="174" y="41"/>
      <point x="112" y="99"/>
      <point x="124" y="184" type="curve"/>
      <point x="137" y="276"/>
      <point x="221" y="350"/>
      <point x="311" y="350" type="curve"/>
      <point x="389" y="350"/>
      <point x="460" y="290"/>
      <point x="447" y="193" type="curve"/>
      <point x="434" y="103"/>
      <point x="352" y="41"/>
    </contour>
  </outline>
</glyph>
<glyph name="euro" format="2">
  <advance width="1202"/>
  <unicode hex="20AC"/>
  <outline>
    <contour>
      <point x="1051" y="-14" type="curve"/>
      <point x="1057" y="46" type="line"/>
      <point x="711" y="-22"/>
      <point x="429" y="198"/>
      <point x="395" y="536" type="curve"/>
      <point x="773" y="538" type="line"/>
      <point x="782" y="598" type="line"/>
      <point x="394" y="598" type="line"/>
      <point x="422" y="802" type="line"/>
      <point x="810" y="802" type="line"/>
      <point x="819" y="862" type="line"/>
      <point x="441" y="860" type="line"/>
      <point x="570" y="1192"/>
      <point x="912" y="1424"/>
      <point x="1244" y="1356" type="curve"/>
      <point x="1249" y="1416" type="line"/>
      <point x="901" y="1488"/>
      <point x="516" y="1240"/>
      <point x="379" y="864" type="curve"/>
      <point x="131" y="862" type="line"/>
      <point x="122" y="802" type="line"/>
      <point x="360" y="802" type="line"/>
      <point x="332" y="598" type="line"/>
      <point x="94" y="598" type="line"/>
      <point x="85" y="538" type="line"/>
      <point x="334" y="540" type="line"/>
      <point x="362" y="170"/>
      <point x="675" y="-88"/>
    </contour>
  </outline>
</glyph>
<glyph name="leftArrow" format="2">
  <advance width="1342"/>
  <unicode hex="2190"/>
  <outline>
    <contour>
      <point x="517" y="284" type="line"/>
      <point x="564" y="326" type="line"/>
      <point x="224" y="720" type="line"/>
      <point x="1293" y="720" type="line"/>
      <point x="1301" y="780" type="line"/>
      <point x="234" y="780" type="line"/>
      <point x="683" y="1174" type="line"/>
      <point x="645" y="1216" type="line"/>
      <point x="115" y="750" type="line"/>
    </contour>
  </outline>
</glyph>
<glyph name="upDownArrow" format="2">
  <advance width="1094"/>
  <unicode hex="2195"/>
  <outline>
    <contour>
      <point x="484" y="48" type="line"/>
      <point x="1016" y="516" type="line"/>
      <point x="977" y="560" type="line"/>
      <point x="528" y="162" type="line"/>
      <point x="694" y="1338" type="line"/>
      <point x="1033" y="942" type="line"/>
      <point x="1082" y="986" type="line"/>
      <point x="679" y="1452" type="line"/>
      <point x="148" y="986" type="line"/>
      <point x="185" y="942" type="line"/>
      <point x="634" y="1338" type="line"/>
      <point x="468" y="162" type="line"/>
      <point x="129" y="560" type="line"/>
      <point x="82" y="516" type="line"/>
    </contour>
  </outline>
</glyph>
<glyph name="southEastArrow" format="2">
  <advance width="1016"/>
  <unicode hex="2198"/>
  <outline>
    <contour>
      <point x="251" y="322" type="line"/>
      <point x="911" y="322" type="line"/>
      <point x="1004" y="982" type="line"/>
      <point x="944" y="982" type="line"/>
      <point x="865" y="424" type="line"/>
      <point x="216" y="1178" type="line"/>
      <point x="169" y="1136" type="line"/>
      <point x="818" y="382" type="line"/>
      <point x="259" y="382" type="line"/>
    </contour>
  </outline>
</glyph>
<glyph name="minus" format="2">
  <advance width="1160"/>
  <unicode hex="2212"/>
  <outline>
    <contour>
      <point x="90" y="570" type="line"/>
      <point x="1090" y="570" type="line"/>
      <point x="1098" y="630" type="line"/>
      <point x="98" y="630" type="line"/>
    </contour>
  </outline>
</glyph>
<glyph name="radical" format="2">
  <advance width="1240"/>
  <unicode hex="221A"/>
  <outline>
    <contour>
      <point x="970" y="1400" type="line"/>
      <point x="310" y="96" type="line"/>
      <point x="173" y="708" type="line"/>
      <point x="110" y="708" type="line"/>
      <point x="268" y="0" type="line"/>
      <point x="326" y="0" type="line"/>
      <point x="1005" y="1340" type="line"/>
      <point x="1278" y="1340" type="line"/>
      <point x="1286" y="1400" type="line"/>
    </contour>
  </outline>
</glyph>
<glyph name="lessequal" format="2">
  <advance width="1160"/>
  <unicode hex="2264"/>
  <outline>
    <contour>
      <point x="1059" y="348" type="line"/>
      <point x="1067" y="410" type="line"/>
      <point x="159" y="680" type="line"/>
      <point x="1143" y="948" type="line"/>
      <point x="1152" y="1012" type="line"/>
      <point x="112" y="726" type="line"/>
      <point x="99" y="632" type="line"/>
    </contour>
    <contour>
      <point x="10" y="0" type="line"/>
      <point x="1010" y="0" type="line"/>
      <point x="1018" y="60" type="line"/>
      <point x="18" y="60" type="line"/>
    </contour>
  </outline>
</glyph>
<glyph name="greaterequal" format="2">
  <advance width="1160"/>
  <unicode hex="2265"/>
  <outline>
    <contour>
      <point x="59" y="348" type="line"/>
      <point x="1099" y="632" type="line"/>
      <point x="1112" y="726" type="line"/>
      <point x="152" y="1012" type="line"/>
      <point x="143" y="948" type="line"/>
      <point x="1051" y="680" type="line"/>
      <point x="67" y="410" type="line"/>
    </contour>
    <contour>
      <point x="10" y="0" type="line"/>
      <point x="1010" y="0" type="line"/>
      <point x="1018" y="60" type="line"/>
      <point x="18" y="60" type="line"/>
    </contour>
  </outline>
</glyph>
